<?xml version="1.0" ?><svg viewBox="0 0 96 96" xmlns="http://www.w3.org/2000/svg" width="50px" height="10px"><title/><path d="M64,44c-2,2-4,4-8,4-8,0-8-8-16-8-4,0-6,2-8,4V22H64Z" style="fill:#DFEFF9"/><path d="M56,22V48c4,0,6-2,8-4V22Z" style="fill:#B2E2FF"/><rect height="20" rx="50" ry="5" style="fill:#B2E2FF" width="48" x="24" y="2"/><path d="M67,2H59a5,5,0,0,1,5,5V17a5,5,0,0,1-5,5h8a5,5,0,0,0,5-5V7A5,5,0,0,0,67,2Z" style="fill:#B2E2FF"/><rect height="20" rx="5" ry="5" style="fill:none;stroke:#4D4D4D;stroke-linecap:round;stroke-linejoin:round;stroke-width:3px" width="48" x="24" y="2"/><path d="M32,44V78A16,16,0,0,0,48,94h0A16,16,0,0,0,64,78V44c-2,2-4,4-8,4-8,0-8-8-16-8-4,0-6,2-8,4" style="fill:#ffe2e9"/><path d="M56,48V78A16,16,0,0,1,44,93.48,15.94,15.94,0,0,0,64,78V44C62,46,60,48,56,48Z" style="fill:#ffe2e9"/><path d="M32,44c2-2,4-4,8-4,8,0,8,8,16,8,4,0,6-2,8-4" style="fill:none;stroke:#757575;stroke-linecap:round;stroke-linejoin:round;stroke-width:2px"/><path d="M64,22V78a16,16,0,0,1-29.33,8.83c-.14-.21-.28-.43-.4-.65A15.68,15.68,0,0,1,32,78V22Z" style="fill:none;stroke:#4D4D4D;stroke-linecap:round;stroke-linejoin:round;stroke-width:3px"/></svg>