<?xml version="1.0" ?><!DOCTYPE svg  PUBLIC '-//W3C//DTD SVG 1.1//EN'  'http://www.w3.org/Graphics/SVG/1.1/DTD/svg11.dtd'><svg width="50px" height="10px" enable-background="new 0 0 128 128" id="Слой_1" version="1.1" viewBox="0 0 128 128" xml:space="preserve" xmlns="http://www.w3.org/2000/svg" xmlns:xlink="http://www.w3.org/1999/xlink"><g><g><path d="M105.2,32.3V109c0,8.3-6.7,15-15,15H37.8c-8.3,0-15-6.7-15-15V32.3c0-8.3,6.7-15,15-15h52.4    C98.5,17.3,105.2,24,105.2,32.3z" fill="#FFFFFF"/></g><g><path d="M60.7,76.6C60.6,76.6,60.6,76.6,60.7,76.6c-0.7,0-1.2-0.5-1.2-1.1l-3.2-24.7l-3.7,12.9    c-0.2,0.5-0.6,0.9-1.2,0.9c0,0,0,0,0,0c-0.5,0-1-0.4-1.2-0.9l-3.8-12.3l-2.6,5.2c-0.2,0.4-0.6,0.7-1.1,0.7h-4.9    c-0.7,0-1.2-0.6-1.2-1.2s0.6-1.2,1.2-1.2h4.1l3.7-7.3c0.2-0.5,0.7-0.7,1.2-0.7c0.5,0,0.9,0.4,1.1,0.9l3.4,11.3l4.2-14.6    c0.2-0.6,0.7-1,1.3-0.9c0.6,0,1.1,0.5,1.1,1.1L61,68.4l4.4-18.7c0.1-0.6,0.6-1,1.2-1c0,0,0,0,0,0c0.6,0,1.1,0.4,1.2,1l1.9,9.2    l1.7-3.5c0.2-0.4,0.6-0.7,1.1-0.7h17.5c0.7,0,1.2,0.6,1.2,1.2s-0.6,1.2-1.2,1.2H73.4l-3,6c-0.2,0.5-0.8,0.8-1.3,0.7    c-0.5-0.1-1-0.5-1.1-1l-1.5-7.2l-4.7,19.9C61.7,76.2,61.2,76.6,60.7,76.6z" fill="#E074A3"/></g><g><path d="M90.2,125.2H37.8c-9,0-16.2-7.3-16.2-16.2V32.3c0-9,7.3-16.2,16.2-16.2h52.4c9,0,16.2,7.3,16.2,16.2V109    C106.5,118,99.2,125.2,90.2,125.2z M37.8,18.6c-7.6,0-13.8,6.2-13.8,13.8V109c0,7.6,6.2,13.8,13.8,13.8h52.4    c7.6,0,13.8-6.2,13.8-13.8V32.3c0-7.6-6.2-13.8-13.8-13.8H37.8z" fill="#502D4B"/></g><g><path d="M90.2,110.2H37.8c-0.7,0-1.2-0.6-1.2-1.2s0.6-1.2,1.2-1.2h52.4c0.7,0,1.2,0.6,1.2,1.2    S90.9,110.2,90.2,110.2z" fill="#502D4B"/></g><g><path d="M90.2,100.2H37.8c-0.7,0-1.2-0.6-1.2-1.2s0.6-1.2,1.2-1.2h52.4c0.7,0,1.2,0.6,1.2,1.2    S90.9,100.2,90.2,100.2z" fill="#502D4B"/></g><g><path d="M90.2,90.2H37.8c-0.7,0-1.2-0.6-1.2-1.2s0.6-1.2,1.2-1.2h52.4c0.7,0,1.2,0.6,1.2,1.2S90.9,90.2,90.2,90.2z    " fill="#502D4B"/></g><g><path d="M70.7,17.3v-6.7C70.7,7,67.7,4,64,4s-6.7,3-6.7,6.7v6.7H44V24c0,3.7,3,6.7,6.7,6.7h26.7    c3.7,0,6.7-3,6.7-6.7v-6.7H70.7z M64,14.5c-2.1,0-3.8-1.7-3.8-3.8C60.2,8.7,61.9,7,64,7s3.8,1.7,3.8,3.8    C67.8,12.8,66.1,14.5,64,14.5z" fill="#898288"/></g><g><path d="M77.3,31.9H50.7c-4.4,0-7.9-3.6-7.9-7.9v-6.7c0-0.7,0.6-1.2,1.2-1.2h12.1v-5.4c0-4.4,3.6-7.9,7.9-7.9    s7.9,3.6,7.9,7.9v5.4H84c0.7,0,1.2,0.6,1.2,1.2V24C85.2,28.4,81.7,31.9,77.3,31.9z M45.2,18.6V24c0,3,2.4,5.4,5.4,5.4h26.7    c3,0,5.4-2.4,5.4-5.4v-5.4H70.7c-0.7,0-1.2-0.6-1.2-1.2v-6.7c0-3-2.4-5.4-5.4-5.4s-5.4,2.4-5.4,5.4v6.7c0,0.7-0.6,1.2-1.2,1.2    H45.2z" fill="#502D4B"/></g><g><path d="M64,15.8c-2.8,0-5-2.2-5-5s2.2-5,5-5s5,2.2,5,5S66.8,15.8,64,15.8z M64,8.2c-1.4,0-2.5,1.1-2.5,2.5    s1.1,2.5,2.5,2.5s2.5-1.1,2.5-2.5S65.4,8.2,64,8.2z" fill="#502D4B"/></g></g></svg>