<?xml version="1.0" ?><!DOCTYPE svg  PUBLIC '-//W3C//DTD SVG 1.1//EN'  'http://www.w3.org/Graphics/SVG/1.1/DTD/svg11.dtd'><svg width="50px" height="10px" enable-background="new 0 0 128 128" id="Слой_1" version="1.1" viewBox="0 0 128 128" xml:space="preserve" xmlns="http://www.w3.org/2000/svg" xmlns:xlink="http://www.w3.org/1999/xlink"><g><circle cx="64" cy="64" fill="#F0F1EE" r="62"/><g><g><path d="M82.1,38.7L66.8,53.9l12.7,12.7c3.5,3.5,3.5,9.2,0,12.7l-21,21c-3.5,3.5-9.2,3.5-12.7,0L28.2,82.8     c-0.8-0.8-2.2-0.8-3.1,0l-1,1c-0.8,0.8-0.8,2.2,0,3.1L51.3,114c5.3,5.3,13.8,5.3,19.1,0l25.1-25.1c10.2-10.2,10.2-26.7,0-36.9     L82.1,38.7z" fill="#FFFFFF"/></g><g><rect fill="#898288" height="16.2" transform="matrix(0.7071 -0.7071 0.7071 0.7071 13.1993 79.9219)" width="4.5" x="100.8" y="15.9"/></g><g><path d="M83,37.8c-0.5-0.5-1.3-0.5-1.8,0L65.9,53.1c-0.2,0.2-0.4,0.6-0.4,0.9s0.1,0.6,0.4,0.9l12.7,12.7     c3,3,3,7.9,0,11l-21,21c-1.5,1.5-3.4,2.3-5.5,2.3s-4-0.8-5.5-2.3L29.1,82c-1.3-1.3-3.5-1.3-4.8,0l-1,1c-0.6,0.6-1,1.5-1,2.4     s0.4,1.8,1,2.4l27.1,27.1c2.8,2.8,6.5,4.3,10.4,4.3s7.6-1.5,10.4-4.3l25.1-25.1c10.7-10.7,10.7-28,0-38.6L83,37.8z M94.6,88     l-25.1,25.1c-2.3,2.3-5.4,3.6-8.7,3.6s-6.3-1.3-8.7-3.6L25,86c-0.2-0.2-0.3-0.4-0.3-0.6s0.1-0.5,0.3-0.6l1-1     c0.2-0.2,0.4-0.3,0.6-0.3s0.5,0.1,0.6,0.3l17.6,17.6c1.9,1.9,4.5,3,7.2,3s5.3-1.1,7.2-3l21-21c4-4,4-10.5,0-14.5L68.6,53.9     l13.5-13.5l12.5,12.5C104.3,62.6,104.3,78.4,94.6,88z" fill="#502D4B"/></g><g><path d="M109.4,27.2l-9.5-9.5c-0.5-0.5-1.4-0.5-1.9,0l-1.3,1.3c-0.5,0.5-0.5,1.4,0,1.9s0.5,1.4,0,1.9L44.2,75.3     c-0.5,0.5-0.5,1.4,0,1.9l5.7,5.7c0.5,0.5,1.4,0.5,1.9,0l52.5-52.5c0.5-0.5,1.4-0.5,1.9,0c0.5,0.5,1.4,0.5,1.9,0l1.3-1.3     C110,28.6,110,27.7,109.4,27.2z" fill="#FFFFFF"/></g><path d="M109.4,27.2l-9.5-9.5c-0.5-0.5-1.4-0.5-1.9,0l-1.3,1.3c-0.5,0.5-0.5,1.4,0,1.9    s0.5,1.4,0,1.9l-1.2,1.2l7.6,7.6l1.2-1.2c0.5-0.5,1.4-0.5,1.9,0h0c0.5,0.5,1.4,0.5,1.9,0l1.3-1.3C110,28.6,110,27.7,109.4,27.2z" fill="#502D4B" opacity="0.2"/><g><path d="M110.3,26.3l-9.5-9.5c-1-1-2.7-1-3.7,0l-1.3,1.3c-1,1-1,2.7,0,3.7c0,0,0,0.1,0,0.1L43.3,74.4     c-1,1-1,2.7,0,3.7l5.7,5.7c0.5,0.5,1.1,0.8,1.8,0.8c0.7,0,1.3-0.3,1.8-0.8l52.5-52.5h0.1c1,1,2.7,1,3.7,0l1.3-1.3     C111.3,29,111.3,27.3,110.3,26.3z M108.6,28.2l-1.3,1.3c0,0-0.1,0-0.1,0c-1-1-2.7-1-3.7,0L50.9,82.1c0,0,0,0-0.1,0l-5.8-5.8     c0,0,0-0.1,0-0.1l52.5-52.5c1-1,1-2.7,0-3.7c0,0,0-0.1,0-0.1l1.3-1.3c0,0,0.1,0,0.1,0l9.5,9.5C108.6,28.1,108.6,28.2,108.6,28.2z     " fill="#502D4B"/></g><g><path d="M88.8,28.8c-0.5-0.5-1.4-0.5-1.9,0L60.1,55.5c-0.5,0.5-1.4,0.5-1.9,0v0c-0.5-0.5-1.4-0.5-1.9,0l-1.9,1.9     c-0.5,0.5-0.5,1.4,0,1.9l13.4,13.4c0.5,0.5,1.4,0.5,1.9,0l1.9-1.9c0.5-0.5,0.5-1.4,0-1.9s-0.5-1.4,0-1.9l1.3-1.3     c0.5-0.5,1.4-0.5,1.9,0l0.4,0.4c0.5,0.5,1.4,0.5,1.9,0l17.2-17.2c0.5-0.5,0.5-1.4,0-1.9l-0.4-0.4c-0.5-0.5-0.5-1.4,0-1.9l4.5-4.5     c0.5-0.5,0.5-1.4,0-1.9L88.8,28.8z" fill="#898288"/></g><path d="M72.7,65.8L61.3,54.4l-1.2,1.2c-0.5,0.5-1.4,0.5-1.9,0c-0.5-0.5-1.4-0.5-1.9,0l-1.9,1.9    c-0.5,0.5-0.5,1.4,0,1.9l13.4,13.4c0.5,0.5,1.4,0.5,1.9,0l1.9-1.9c0.5-0.5,0.5-1.4,0-1.9s-0.5-1.4,0-1.9L72.7,65.8z" fill="#502D4B" opacity="0.2"/><g><path d="M89.6,27.9c-1-1-2.7-1-3.7,0L59.2,54.6h-0.1c-1-1-2.7-1-3.7,0l-1.9,1.9c-0.5,0.5-0.8,1.1-0.8,1.8     c0,0.7,0.3,1.3,0.8,1.8l13.4,13.4c0.5,0.5,1.1,0.8,1.8,0.8c0.7,0,1.3-0.3,1.8-0.8l1.9-1.9c0.5-0.5,0.8-1.1,0.8-1.8     c0-0.7-0.3-1.3-0.8-1.8c0,0,0-0.1,0-0.1l1.3-1.3l-0.9-0.9l1,0.9l0.4,0.4c1,1,2.7,1,3.7,0l17.2-17.2c1-1,1-2.7,0-3.7l-0.4-0.4     c0,0,0-0.1,0-0.1l4.5-4.5c0.5-0.5,0.8-1.1,0.8-1.8c0-0.7-0.3-1.3-0.8-1.8L89.6,27.9z M97.4,39.4L93,43.8c-1,1-1,2.7,0,3.7     l0.4,0.4c0,0,0,0.1,0,0.1L76.2,65.2H76l-0.4-0.4c-1-1-2.7-1-3.7,0l-1.3,1.3c-0.5,0.5-0.8,1.1-0.8,1.8c0,0.7,0.3,1.3,0.8,1.8     c0,0,0,0.1,0,0.1l-1.9,1.9c0,0,0,0-0.1,0L55.3,58.5c0,0,0-0.1,0-0.1l1.9-1.9l-0.9-0.9l1,0.9c1,1,2.7,1,3.7,0l26.7-26.7h0.1     l9.5,9.5C97.5,39.3,97.5,39.3,97.4,39.4z" fill="#502D4B"/></g><g><path d="M31.4,79.7c-0.5-0.5-1.3-0.5-1.8,0s-0.5,1.3,0,1.8l16,16c0.2,0.2,0.6,0.4,0.9,0.4s0.6-0.1,0.9-0.4     c0.5-0.5,0.5-1.3,0-1.8L31.4,79.7z" fill="#DEF0F0"/></g><path d="M61.9,102.5c-5.5,0-11.1,3.3-13.2,8.9l2.6,2.6c5.3,5.3,13.8,5.3,19.1,0l3.9-3.9    C71.9,105.4,67.2,102.5,61.9,102.5z" fill="#502D4B" opacity="0.2"/><g><path d="M51,116.5v8.1c4.2,0.9,8.5,1.4,13,1.4c4.4,0,8.7-0.5,12.8-1.3l-5.1-12.3C67.2,101.5,51,104.7,51,116.5z" fill="#898288"/></g><g><path d="M59.4,104.7c-4.8,1-9.7,5-9.7,11.8v7.8c0.8,0.2,1.7,0.4,2.5,0.5v-8.4c0-5.8,4.1-8.6,7.7-9.3     c3.5-0.7,8.5,0.4,10.7,5.7l5,12c0.8-0.2,1.7-0.3,2.5-0.5l-5.1-12.5C70.3,105.6,64.2,103.8,59.4,104.7z" fill="#502D4B"/></g><g><path d="M97.6,20c-0.5-0.5-1.3-0.5-1.8,0s-0.5,1.3,0,1.8l9.5,9.5c0.2,0.2,0.6,0.4,0.9,0.4s0.6-0.1,0.9-0.4     c0.5-0.5,0.5-1.3,0-1.8L97.6,20z" fill="#502D4B"/></g><g><path d="M59.1,54.6c-0.5-0.5-1.3-0.5-1.8,0s-0.5,1.3,0,1.8l13.4,13.4c0.2,0.2,0.6,0.4,0.9,0.4s0.6-0.1,0.9-0.4     c0.5-0.5,0.5-1.3,0-1.8L59.1,54.6z" fill="#502D4B"/></g><g><path d="M48.5,71c-0.5-0.5-1.3-0.5-1.8,0c-0.5,0.5-0.5,1.3,0,1.8l4.8,4.8c0.2,0.2,0.6,0.4,0.9,0.4     c0.3,0,0.6-0.1,0.9-0.4c0.5-0.5,0.5-1.3,0-1.8L48.5,71z" fill="#502D4B"/></g><g><circle cx="61.8" cy="117" fill="#61BDA7" r="5.4"/></g><path d="M85.6,47.3c-5.7,0-10.3,4.6-10.3,10.3c0,5.7,4.6,10.3,10.3,10.3c5.7,0,10.3-4.6,10.3-10.3    C95.8,51.9,91.2,47.3,85.6,47.3z" fill="#502D4B" opacity="0.2"/><g><circle cx="85.6" cy="57.6" fill="#61BDA7" r="7"/></g><g><path d="M85.6,49.3c-4.6,0-8.3,3.7-8.3,8.3s3.7,8.3,8.3,8.3s8.3-3.7,8.3-8.3S90.1,49.3,85.6,49.3z M85.6,63.4     c-3.2,0-5.8-2.6-5.8-5.8s2.6-5.8,5.8-5.8c3.2,0,5.8,2.6,5.8,5.8S88.7,63.4,85.6,63.4z" fill="#502D4B"/></g><g><path d="M61.8,110.3c-3.7,0-6.7,3-6.7,6.7s3,6.7,6.7,6.7c3.7,0,6.7-3,6.7-6.7S65.5,110.3,61.8,110.3z M61.8,121.1     c-2.3,0-4.2-1.9-4.2-4.2s1.9-4.2,4.2-4.2c2.3,0,4.2,1.9,4.2,4.2S64.1,121.1,61.8,121.1z" fill="#502D4B"/></g><g><path d="M21.2,93.3c-0.8-0.8-2.1-0.8-2.8,0l-0.2,0.2c-0.8,0.8-0.8,2.1,0,2.8l20.2,20c0.8,0.8,2.1,0.8,2.8,0     l0.2-0.2c0.8-0.8,0.8-2.1,0-2.8L21.2,93.3z" fill="#F9E373"/></g><g><path d="M22.1,92.4c-1.2-1.2-3.4-1.2-4.6,0l-0.2,0.2c-1.3,1.3-1.3,3.3,0,4.6l20.2,20c0.6,0.6,1.4,0.9,2.3,0.9     c0.9,0,1.7-0.3,2.3-1l0.2-0.2c0.6-0.6,0.9-1.4,0.9-2.3c0-0.9-0.3-1.7-1-2.3L22.1,92.4z M40.5,115.2l-0.2,0.2     c-0.1,0.1-0.3,0.2-0.5,0.2c-0.2,0-0.4-0.1-0.5-0.2l-20.2-20c-0.3-0.3-0.3-0.8,0-1.1l0.2-0.2c0.1-0.1,0.3-0.2,0.5-0.2     c0.2,0,0.4,0.1,0.5,0.2l20.2,20c0.1,0.1,0.2,0.3,0.2,0.5S40.7,115.1,40.5,115.2z" fill="#502D4B"/></g><path d="M50,121.1H39.9h-4.8c-2.2,0-4-1.8-4-4v-0.6v-8.7c0-0.7-0.6-1.2-1.2-1.2s-1.2,0.6-1.2,1.2v7v2.3    c0,3.6,2.9,6.5,6.5,6.5h12H50c0.7,0,1.2-0.6,1.2-1.2S50.7,121.1,50,121.1z" fill="#502D4B"/><g><circle cx="85.6" cy="57.6" fill="#502D4B" r="1.2"/></g><g><circle cx="61.8" cy="117" fill="#502D4B" r="1.2"/></g></g></g></svg>